<svg width="24" height="24" viewBox="0 0 24 24" fill="none" xmlns="http://www.w3.org/2000/svg">
  <rect width="24" height="24" rx="5.33333" fill="#FAFAFA"/>
  <rect x="0.333333" y="0.333333" width="23.3333" height="23.3333" rx="5" stroke="black" stroke-opacity="0.08" stroke-width="0.666667"/>
  <path d="M8.68942 17.7368C10.226 17.7368 10.9713 16.9657 10.9713 16.0635C10.9713 14.0817 7.84428 14.768 7.84428 13.7733C7.84428 13.434 8.12856 13.1564 8.86613 13.1564C9.34247 13.1564 9.85723 13.2952 10.3566 13.5805L10.7408 12.6321C10.2414 12.3159 9.54991 12.154 8.87381 12.154C7.34489 12.154 6.60732 12.9174 6.60732 13.835C6.60732 15.8399 9.73431 15.1459 9.73431 16.156C9.73431 16.4876 9.43467 16.7344 8.6971 16.7344C8.05172 16.7344 7.37562 16.503 6.92232 16.1715L6.49976 17.1122C6.9761 17.4823 7.8366 17.7368 8.68942 17.7368Z" fill="black"/>
  <path d="M14.4444 16.6418V15.3926H16.9414V14.421H14.4444V13.2489H17.2717V12.2465H13.2074V17.6443H17.3716V16.6418H14.4444Z" fill="black"/>
  <path d="M11.8734 10.9787L11.8592 6.0423H10.9213L9.28997 9.10992L7.64199 6.0423H6.69702V10.9787H7.76893V8.08033L9.01494 10.4569H9.52974L10.7944 8.01686L10.8014 10.9787H11.8734Z" fill="black"/>
<path d="M15.2788 11.0633C16.6822 11.0633 17.3694 10.2171 17.3694 8.76439V6H16.2411V8.72208C16.2411 9.65999 15.984 10.0902 15.2859 10.0902C14.5948 10.0902 14.2862 9.70229 14.2862 8.76438V6.0423H13.1438V8.80669C13.1438 10.2594 13.8755 11.0633 15.2788 11.0633Z" fill="black"/>
</svg>
