<svg width="16" height="16" viewBox="0 0 16 16" fill="none" xmlns="http://www.w3.org/2000/svg">
<g style="mix-blend-mode:luminosity">
<path d="M10.2069 3C10.0209 3 9.86867 3.06764 9.73902 3.19166L5.35345 7.47576C5.20125 7.6336 5.12233 7.79707 5.12233 8C5.12233 8.19729 5.19561 8.37204 5.35345 8.5186L9.73902 12.8083C9.86867 12.9324 10.0209 13 10.2069 13C10.5846 13 10.8777 12.7069 10.8777 12.3348C10.8777 12.1545 10.7988 11.9797 10.6748 11.8501L6.72323 7.99436L10.6748 4.14994C10.8044 4.01466 10.8777 3.85118 10.8777 3.66516C10.8777 3.29312 10.5846 3 10.2069 3Z" fill="black"/>
</g>
</svg>
