<svg width="16" height="16" viewBox="0 0 16 16" fill="none" xmlns="http://www.w3.org/2000/svg">
<path d="M5.79311 13C5.97914 13 6.13133 12.9324 6.26098 12.8083L10.6466 8.52424C10.7988 8.3664 10.8777 8.20293 10.8777 8C10.8777 7.80271 10.8044 7.62796 10.6466 7.4814L6.26098 3.19166C6.13133 3.06764 5.97914 3 5.79311 3C5.41544 3 5.12231 3.29312 5.12231 3.66516C5.12231 3.84555 5.20123 4.02029 5.32525 4.14994L9.27677 8.00564L5.32525 11.8501C5.1956 11.9853 5.12231 12.1488 5.12231 12.3348C5.12231 12.7069 5.41544 13 5.79311 13Z" fill="black"/>
</svg>
