<svg width="16" height="16" viewBox="0 0 16 16" fill="none" xmlns="http://www.w3.org/2000/svg">
<path d="M13 10.2066C13 10.0206 12.9324 9.86842 12.8083 9.73877L8.52424 5.3532C8.3664 5.201 8.20293 5.12209 8 5.12209C7.80271 5.12209 7.62796 5.19537 7.4814 5.3532L3.19166 9.73877C3.06764 9.86842 3 10.0206 3 10.2066C3 10.5843 3.29312 10.8774 3.66516 10.8774C3.84555 10.8774 4.02029 10.7985 4.14994 10.6745L8.00564 6.72299L11.8501 10.6745C11.9853 10.8042 12.1488 10.8774 12.3348 10.8774C12.7069 10.8774 13 10.5843 13 10.2066Z" fill="black"/>
</svg>
