<svg width="16" height="16" viewBox="0 0 16 16" fill="none" xmlns="http://www.w3.org/2000/svg">
<g style="mix-blend-mode:luminosity">
<path d="M3 5.79336C3 5.97938 3.06764 6.13158 3.19166 6.26123L7.47576 10.6468C7.6336 10.799 7.79707 10.8779 8 10.8779C8.19729 10.8779 8.37204 10.8046 8.5186 10.6468L12.8083 6.26123C12.9324 6.13158 13 5.97938 13 5.79336C13 5.41568 12.7069 5.12256 12.3348 5.12256C12.1545 5.12256 11.9797 5.20148 11.8501 5.32549L7.99436 9.27701L4.14994 5.32549C4.01466 5.19584 3.85118 5.12256 3.66516 5.12256C3.29312 5.12256 3 5.41568 3 5.79336Z" fill="black"/>
</g>
</svg>
