<svg width="16" height="16" viewBox="0 0 16 16" fill="none" xmlns="http://www.w3.org/2000/svg">
<path fill-rule="evenodd" clip-rule="evenodd" d="M6.50043 2C6.1026 2 5.72107 2.15804 5.43977 2.43934C5.15846 2.72064 5.00043 3.10217 5.00043 3.5V4H2.50043C1.94814 4 1.50043 4.44772 1.50043 5V7.89442V7.89445V13C1.50043 13.5523 1.94814 14 2.50043 14H13.5004C14.0527 14 14.5004 13.5523 14.5004 13V7.91003C14.5008 7.8993 14.5008 7.88855 14.5004 7.87778V5C14.5004 4.44772 14.0527 4 13.5004 4H11.0004V3.5C11.0004 3.10217 10.8424 2.72064 10.5611 2.43934C10.2798 2.15804 9.89825 2 9.50043 2H6.50043ZM2.50043 13V8.72813C4.20862 9.5661 6.08991 10.0029 8.0001 10C9.91054 10.0029 11.7921 9.56598 13.5004 8.72781V13H2.50043ZM8.0001 10L7.99932 10L8.0001 9.50005L8.00089 10L8.0001 10ZM8.00089 9.00005C9.92388 9.00307 11.815 8.52152 13.5004 7.60196V5H10.5004H5.50043H2.50043V7.60231C4.18565 8.52165 6.07658 9.00307 7.99932 9.00005H8.00089ZM10.0004 4V3.5C10.0004 3.36739 9.94775 3.24021 9.85398 3.14645C9.76021 3.05268 9.63304 3 9.50043 3H6.50043C6.36782 3 6.24064 3.05268 6.14687 3.14645C6.05311 3.24021 6.00043 3.36739 6.00043 3.5V4H10.0004ZM7.25043 7C6.97428 7 6.75043 7.22386 6.75043 7.5C6.75043 7.77614 6.97428 8 7.25043 8H8.75043C9.02657 8 9.25043 7.77614 9.25043 7.5C9.25043 7.22386 9.02657 7 8.75043 7H7.25043Z" fill="black"/>
</svg>
