<svg width="16" height="16" viewBox="0 0 16 16" fill="none" xmlns="http://www.w3.org/2000/svg">
<path d="M3.16241 12.0421C2.94797 12.2565 2.94166 12.6224 3.16241 12.8368C3.38316 13.0512 3.74898 13.0512 3.96342 12.8368L8 8.80022L12.0366 12.8368C12.251 13.0512 12.6231 13.0575 12.8376 12.8368C13.052 12.616 13.052 12.2565 12.8376 12.0421L8.801 7.99921L12.8376 3.96264C13.052 3.74819 13.0583 3.38238 12.8376 3.16794C12.6168 2.94719 12.251 2.94719 12.0366 3.16794L8 7.20451L3.96342 3.16794C3.74898 2.94719 3.37686 2.94088 3.16241 3.16794C2.94797 3.38869 2.94797 3.74819 3.16241 3.96264L7.19899 7.99921L3.16241 12.0421Z" fill="black"/>
</svg>
