<svg width="16" height="16" viewBox="0 0 16 16" fill="none" xmlns="http://www.w3.org/2000/svg">
<g style="mix-blend-mode:luminosity">
<path d="M2.2211 14.3086H13.7722C15.2371 14.3086 16 13.5525 16 12.1078V3.89176C16 2.44704 15.2371 1.69092 13.7722 1.69092H2.2211C0.762869 1.69092 0 2.44029 0 3.89176V12.1078C0 13.5525 0.762869 14.3086 2.2211 14.3086ZM2.30886 12.9652C1.68776 12.9652 1.34346 12.6411 1.34346 11.9863V4.01328C1.34346 3.35843 1.68776 3.03438 2.30886 3.03438H4.90127V12.9652H2.30886ZM6.21772 12.9652V3.03438H9.78228V12.9652H6.21772ZM13.6844 3.03438C14.3055 3.03438 14.6498 3.35843 14.6498 4.01328V11.9863C14.6498 12.6411 14.3055 12.9652 13.6844 12.9652H11.092V3.03438H13.6844Z" fill="black"/>
</g>
</svg>
