<svg width="16" height="16" viewBox="0 0 16 16" fill="none" xmlns="http://www.w3.org/2000/svg">
<path fill-rule="evenodd" clip-rule="evenodd" d="M8 1C4.13359 1 1 4.13359 1 8C1 11.8664 4.13359 15 8 15C11.8664 15 15 11.8664 15 8C15 4.13359 11.8664 1 8 1ZM6.76295 6.76274C7.13619 6.38813 7.63795 6.2186 8.1274 6.25414L11.0928 4.9061L9.74479 7.87153C9.78033 8.36098 9.6108 8.86137 9.23619 9.23598C8.86295 9.61059 8.36119 9.78012 7.87174 9.74457L4.90631 11.0926L6.25436 8.12719C6.21881 7.63774 6.38834 7.13735 6.76295 6.76274ZM7.45851 8.54153C7.75792 8.84095 8.24191 8.84095 8.54132 8.54153C8.84073 8.24212 8.84073 7.75814 8.54132 7.45872C8.24191 7.15931 7.75792 7.15931 7.45851 7.45872C7.15909 7.75814 7.15909 8.24212 7.45851 8.54153ZM1.98438 8C1.98438 11.3223 4.67773 14.0156 8 14.0156C11.3223 14.0156 14.0156 11.3223 14.0156 8C14.0156 4.67773 11.3223 1.98438 8 1.98438C4.67773 1.98438 1.98438 4.67773 1.98438 8Z" fill="black"/>
</svg>
