<svg width="16" height="16" viewBox="0 0 16 16" fill="none" xmlns="http://www.w3.org/2000/svg">
<path d="M11.0105 6.23242H14.0105V3.23242" stroke="black" stroke-linecap="round" stroke-linejoin="round"/>
<path d="M4.11084 4.11091C4.62156 3.60019 5.22788 3.19506 5.89517 2.91866C6.56246 2.64226 7.27766 2.5 7.99993 2.5C8.7222 2.5 9.4374 2.64226 10.1047 2.91866C10.772 3.19506 11.3783 3.60019 11.889 4.11091L14.0103 6.23223" stroke="black" stroke-linecap="round" stroke-linejoin="round"/>
<path d="M4.9895 9.76758H1.9895V12.7676" stroke="black" stroke-linecap="round" stroke-linejoin="round"/>
<path d="M11.889 11.8889C11.3783 12.3996 10.772 12.8047 10.1047 13.0811C9.43738 13.3576 8.72218 13.4998 7.99991 13.4998C7.27764 13.4998 6.56244 13.3576 5.89515 13.0811C5.22786 12.8047 4.62154 12.3996 4.11082 11.8889L1.9895 9.76758" stroke="black" stroke-linecap="round" stroke-linejoin="round"/>
</svg>
