<svg width="16" height="16" viewBox="0 0 16 16" fill="none" xmlns="http://www.w3.org/2000/svg">
<path d="M10.5019 3.37216L11.5366 2.33687C11.7523 2.12117 12.0448 2 12.3499 2C12.6549 2 12.9474 2.12117 13.1631 2.33687C13.3788 2.55256 13.5 2.8451 13.5 3.15014C13.5 3.45517 13.3788 3.74771 13.1631 3.96341L7.60856 9.51797C7.28432 9.84203 6.88445 10.0802 6.44509 10.211L4.79831 10.7017L5.28897 9.05491C5.41978 8.61555 5.65797 8.21568 5.98203 7.89143L10.5019 3.37216ZM10.5019 3.37216L12.1199 4.99011M13.0399 9.20672V12.12C13.0399 12.486 12.8945 12.837 12.6357 13.0958C12.3769 13.3546 12.0259 13.5 11.6599 13.5H3.37998C3.01399 13.5 2.66298 13.3546 2.40419 13.0958C2.14539 12.837 2 12.486 2 12.12V3.84013C2 3.47413 2.14539 3.12313 2.40419 2.86433C2.66298 2.60554 3.01399 2.46015 3.37998 2.46015H6.29328" stroke="black" stroke-linecap="round" stroke-linejoin="round"/>
</svg>
