<svg width="16" height="16" viewBox="0 0 16 16" fill="none" xmlns="http://www.w3.org/2000/svg">
<path fill-rule="evenodd" clip-rule="evenodd" d="M3.49951 1.5C3.2343 1.5 2.97994 1.60536 2.7924 1.79289C2.60487 1.98043 2.49951 2.23478 2.49951 2.5V13.5C2.49951 13.7652 2.60487 14.0196 2.7924 14.2071C2.97994 14.3946 3.2343 14.5 3.49951 14.5H12.5C12.6313 14.5 12.7614 14.4741 12.8827 14.4239C13.004 14.3736 13.1142 14.3 13.2071 14.2071C13.3 14.1142 13.3736 14.004 13.4239 13.8827C13.4741 13.7614 13.5 13.6313 13.5 13.5V5.50342C13.5 5.50228 13.5 5.50114 13.5 5.5C13.5 5.36092 13.4432 5.2351 13.3516 5.14447L9.85355 1.64645C9.75979 1.55268 9.63261 1.5 9.5 1.5H9.49951H3.49951ZM8.99951 2.5L3.49951 2.5L3.49951 13.5L12.5 13.5V6H9.49951C9.22337 6 8.99951 5.77614 8.99951 5.5V2.5ZM11.7929 5H9.99951V3.20662L11.7929 5Z" fill="black"/>
</svg>
