<svg width="16" height="16" viewBox="0 0 16 16" fill="none" xmlns="http://www.w3.org/2000/svg">
<path fill-rule="evenodd" clip-rule="evenodd" d="M13.8064 5.84975C13.8827 5.92592 13.986 5.96871 14.0937 5.96871C14.2015 5.96871 14.3048 5.92597 14.381 5.8498C14.4572 5.77358 14.5 5.67027 14.5 5.56252V3.53129C14.4992 2.99279 14.2849 2.47663 13.9041 2.09588C13.5233 1.71513 13.0072 1.50085 12.4687 1.5H10.4375C10.2924 1.5 10.1583 1.57744 10.0857 1.70312C10.0131 1.8288 10.0131 1.98369 10.0857 2.10937C10.1582 2.23505 10.2923 2.31249 10.4375 2.31249H12.4687C12.792 2.31249 13.102 2.44087 13.3305 2.66943C13.5591 2.898 13.6875 3.20798 13.6875 3.53123V5.56247C13.6875 5.67022 13.7303 5.77353 13.8064 5.84975ZM3.53129 14.5H5.56252C5.70766 14.5 5.8417 14.4225 5.91428 14.2968C5.98685 14.1712 5.98684 14.0163 5.91428 13.8906C5.84171 13.7649 5.70762 13.6875 5.56247 13.6875H3.53123C3.20798 13.6875 2.898 13.5591 2.66943 13.3305C2.44087 13.102 2.31249 12.792 2.31249 12.4687V10.4375C2.31249 10.2923 2.23505 10.1583 2.10937 10.0857C1.98369 10.0131 1.82881 10.0131 1.70312 10.0857C1.57744 10.1582 1.5 10.2923 1.5 10.4375V12.4687C1.50085 13.0072 1.71513 13.5234 2.09588 13.9041C2.47668 14.2849 2.99285 14.4992 3.53129 14.5ZM1.90625 5.96877C1.7985 5.96877 1.69519 5.92597 1.61897 5.8498C1.54279 5.77358 1.5 5.67027 1.5 5.56252V3.53129C1.50085 2.99285 1.71513 2.47668 2.09588 2.09588C2.47663 1.71513 2.99279 1.50085 3.53129 1.5H5.56252C5.70767 1.5 5.84176 1.57744 5.91433 1.70312C5.9869 1.82881 5.9869 1.98369 5.91433 2.10937C5.84175 2.23505 5.70766 2.31249 5.56252 2.31249H3.53129C3.20804 2.31249 2.89806 2.44087 2.66949 2.66943C2.44092 2.898 2.31255 3.20798 2.31255 3.53123V5.56247C2.31255 5.67022 2.26975 5.77352 2.19358 5.84975C2.11736 5.92592 2.014 5.96877 1.90625 5.96877ZM10.4375 14.5H12.4687C13.0072 14.4991 13.5233 14.2849 13.9041 13.9041C14.2848 13.5233 14.4991 13.0072 14.5 12.4687V10.4375C14.5 10.2923 14.4225 10.1583 14.2968 10.0857C14.1712 10.0131 14.0163 10.0131 13.8906 10.0857C13.7649 10.1582 13.6875 10.2923 13.6875 10.4375V12.4687C13.6875 12.792 13.5591 13.102 13.3305 13.3305C13.102 13.5591 12.792 13.6875 12.4687 13.6875H10.4375C10.2923 13.6875 10.1583 13.7649 10.0857 13.8906C10.0131 14.0163 10.0131 14.1711 10.0857 14.2968C10.1582 14.4225 10.2923 14.5 10.4375 14.5ZM8.40624 9.217C7.1875 9.217 7.1875 8.35251 7.1875 7.59202V5.96703C7.1875 5.82188 7.26494 5.68779 7.39062 5.61522C7.5163 5.54265 7.67119 5.54265 7.79687 5.61522C7.92255 5.6878 7.99999 5.82189 7.99999 5.96703V7.59202C7.99999 8.09049 7.99999 8.28315 8.0938 8.3576C8.1529 8.40451 8.24923 8.40451 8.40624 8.40451C8.55139 8.40451 8.68548 8.48195 8.75805 8.60763C8.83062 8.73332 8.83062 8.8882 8.75805 9.01388C8.68547 9.13956 8.55138 9.217 8.40624 9.217ZM4.87071 6.65908C4.94672 6.73425 5.04934 6.77636 5.15625 6.77636C5.26316 6.77636 5.36577 6.73425 5.44178 6.65908C5.51785 6.58398 5.56122 6.48188 5.56249 6.37498V5.56249C5.56249 5.41735 5.48505 5.28325 5.35937 5.21068C5.23369 5.1381 5.07881 5.13811 4.95312 5.21068C4.82744 5.28325 4.75 5.41734 4.75 5.56249V6.37498C4.75127 6.48188 4.79465 6.58397 4.87071 6.65908ZM10.8437 6.77636C10.7368 6.77636 10.6342 6.73425 10.5582 6.65908C10.4821 6.58397 10.4388 6.48188 10.4375 6.37498V5.56249C10.4375 5.41734 10.5149 5.28325 10.6406 5.21068C10.7663 5.13811 10.9212 5.1381 11.0469 5.21068C11.1725 5.28325 11.25 5.41735 11.25 5.56249V6.37498C11.2487 6.48188 11.2053 6.58398 11.1293 6.65908C11.0533 6.73425 10.9507 6.77636 10.8437 6.77636ZM6.30316 11.3059C6.84014 11.5331 7.41677 11.6522 7.99988 11.6562C8.58294 11.6522 9.15955 11.5331 9.69659 11.3059C10.2337 11.0786 10.7206 10.7476 11.1296 10.3318C11.2082 10.2565 11.2532 10.1527 11.2546 10.0438C11.256 9.93479 11.2136 9.8299 11.1369 9.75256C11.0602 9.67517 10.9556 9.6319 10.8467 9.63233C10.7378 9.6328 10.6336 9.67697 10.5575 9.75499C10.1135 10.2127 9.55479 10.5429 8.93959 10.7111C8.32439 10.8792 7.67536 10.8792 7.06016 10.7111C6.44504 10.5429 5.88629 10.2127 5.44222 9.75499C5.36616 9.67697 5.26201 9.6328 5.15304 9.63233C5.04412 9.6319 4.93955 9.67517 4.8629 9.75256C4.7862 9.8299 4.74377 9.93479 4.74515 10.0438C4.74653 10.1527 4.79159 10.2565 4.8702 10.3318C5.27919 10.7476 5.76611 11.0786 6.30316 11.3059Z" fill="black"/>
<path d="M7.99988 11.6562C7.41677 11.6522 6.84014 11.5331 6.30316 11.3059C5.76611 11.0786 5.27919 10.7476 4.8702 10.3318C4.79159 10.2565 4.74653 10.1527 4.74515 10.0438C4.74377 9.93479 4.7862 9.8299 4.8629 9.75256C4.93955 9.67517 5.04412 9.6319 5.15304 9.63233C5.26201 9.6328 5.36616 9.67697 5.44222 9.75499C5.88629 10.2127 6.44504 10.5429 7.06016 10.7111C7.67536 10.8792 8.32439 10.8792 8.93959 10.7111C9.55479 10.5429 10.1135 10.2127 10.5575 9.75499C10.6336 9.67697 10.7378 9.6328 10.8467 9.63233C10.9556 9.6319 11.0602 9.67517 11.1369 9.75256C11.2136 9.8299 11.256 9.93479 11.2546 10.0438C11.2532 10.1527 11.2082 10.2565 11.1296 10.3318C10.7206 10.7476 10.2337 11.0786 9.69659 11.3059C9.15955 11.5331 8.58294 11.6522 7.99988 11.6562ZM7.99988 11.6562C7.99987 11.6562 7.99989 11.6562 7.99988 11.6562ZM14.0937 5.96871C13.986 5.96871 13.8827 5.92592 13.8064 5.84975C13.7303 5.77353 13.6875 5.67022 13.6875 5.56247V3.53123C13.6875 3.20798 13.5591 2.898 13.3305 2.66943C13.102 2.44087 12.792 2.31249 12.4687 2.31249H10.4375C10.2923 2.31249 10.1582 2.23505 10.0857 2.10937C10.0131 1.98369 10.0131 1.8288 10.0857 1.70312C10.1583 1.57744 10.2924 1.5 10.4375 1.5H12.4687C13.0072 1.50085 13.5233 1.71513 13.9041 2.09588C14.2849 2.47663 14.4992 2.99279 14.5 3.53129V5.56252C14.5 5.67027 14.4572 5.77358 14.381 5.8498C14.3048 5.92597 14.2015 5.96871 14.0937 5.96871ZM5.56252 14.5H3.53129C2.99285 14.4992 2.47668 14.2849 2.09588 13.9041C1.71513 13.5234 1.50085 13.0072 1.5 12.4687V10.4375C1.5 10.2923 1.57744 10.1582 1.70312 10.0857C1.82881 10.0131 1.98369 10.0131 2.10937 10.0857C2.23505 10.1583 2.31249 10.2923 2.31249 10.4375V12.4687C2.31249 12.792 2.44087 13.102 2.66943 13.3305C2.898 13.5591 3.20798 13.6875 3.53123 13.6875H5.56247C5.70762 13.6875 5.84171 13.7649 5.91428 13.8906C5.98684 14.0163 5.98685 14.1712 5.91428 14.2968C5.8417 14.4225 5.70766 14.5 5.56252 14.5ZM1.61897 5.8498C1.69519 5.92597 1.7985 5.96877 1.90625 5.96877C2.014 5.96877 2.11736 5.92592 2.19358 5.84975C2.26975 5.77352 2.31255 5.67022 2.31255 5.56247V3.53123C2.31255 3.20798 2.44092 2.898 2.66949 2.66943C2.89806 2.44087 3.20804 2.31249 3.53129 2.31249H5.56252C5.70766 2.31249 5.84175 2.23505 5.91433 2.10937C5.9869 1.98369 5.9869 1.82881 5.91433 1.70312C5.84176 1.57744 5.70767 1.5 5.56252 1.5H3.53129C2.99279 1.50085 2.47663 1.71513 2.09588 2.09588C1.71513 2.47668 1.50085 2.99285 1.5 3.53129V5.56252C1.5 5.67027 1.54279 5.77358 1.61897 5.8498ZM12.4687 14.5H10.4375C10.2923 14.5 10.1582 14.4225 10.0857 14.2968C10.0131 14.1711 10.0131 14.0163 10.0857 13.8906C10.1583 13.7649 10.2923 13.6875 10.4375 13.6875H12.4687C12.792 13.6875 13.102 13.5591 13.3305 13.3305C13.5591 13.102 13.6875 12.792 13.6875 12.4687V10.4375C13.6875 10.2923 13.7649 10.1582 13.8906 10.0857C14.0163 10.0131 14.1712 10.0131 14.2968 10.0857C14.4225 10.1583 14.5 10.2923 14.5 10.4375V12.4687C14.4991 13.0072 14.2848 13.5233 13.9041 13.9041C13.5233 14.2849 13.0072 14.4991 12.4687 14.5ZM7.1875 7.59202C7.1875 8.35251 7.1875 9.217 8.40624 9.217C8.55138 9.217 8.68547 9.13956 8.75805 9.01388C8.83062 8.8882 8.83062 8.73332 8.75805 8.60763C8.68548 8.48195 8.55139 8.40451 8.40624 8.40451C8.24923 8.40451 8.1529 8.40451 8.0938 8.3576C7.99999 8.28315 7.99999 8.09049 7.99999 7.59202V5.96703C7.99999 5.82189 7.92255 5.6878 7.79687 5.61522C7.67119 5.54265 7.5163 5.54265 7.39062 5.61522C7.26494 5.68779 7.1875 5.82188 7.1875 5.96703V7.59202ZM5.15625 6.77636C5.04934 6.77636 4.94672 6.73425 4.87071 6.65908C4.79465 6.58397 4.75127 6.48188 4.75 6.37498V5.56249C4.75 5.41734 4.82744 5.28325 4.95312 5.21068C5.07881 5.13811 5.23369 5.1381 5.35937 5.21068C5.48505 5.28325 5.56249 5.41735 5.56249 5.56249V6.37498C5.56122 6.48188 5.51785 6.58398 5.44178 6.65908C5.36577 6.73425 5.26316 6.77636 5.15625 6.77636ZM10.5582 6.65908C10.6342 6.73425 10.7368 6.77636 10.8437 6.77636C10.9507 6.77636 11.0533 6.73425 11.1293 6.65908C11.2053 6.58398 11.2487 6.48188 11.25 6.37498V5.56249C11.25 5.41735 11.1725 5.28325 11.0469 5.21068C10.9212 5.1381 10.7663 5.13811 10.6406 5.21068C10.5149 5.28325 10.4375 5.41734 10.4375 5.56249V6.37498C10.4388 6.48188 10.4821 6.58397 10.5582 6.65908Z" stroke="black" stroke-width="0.15"/>
</svg>
