<svg width="16" height="16" viewBox="0 0 16 16" fill="none" xmlns="http://www.w3.org/2000/svg">
<path d="M2 13V4C2 3.86739 2.05268 3.74021 2.14645 3.64645C2.24021 3.55268 2.36739 3.5 2.5 3.5H5.83333C5.94152 3.5 6.04679 3.53509 6.13333 3.6L7.86667 4.9C7.95321 4.96491 8.05848 5 8.16667 5H12.5C12.6326 5 12.7598 5.05268 12.8536 5.14645C12.9473 5.24021 13 5.36739 13 5.5V7" stroke="black" stroke-linecap="round" stroke-linejoin="round"/>
<path d="M2 13L3.88604 7.34189C3.91922 7.24233 3.98289 7.15574 4.06802 7.09438C4.15316 7.03302 4.25544 7 4.36038 7H14.3063C14.3855 7 14.4636 7.01883 14.5341 7.05493C14.6046 7.09103 14.6656 7.14337 14.7119 7.20764C14.7582 7.27192 14.7886 7.34628 14.8006 7.4246C14.8125 7.50292 14.8057 7.58295 14.7806 7.65811L13 13H2Z" stroke="black" stroke-linecap="round" stroke-linejoin="round"/>
</svg>
