<svg width="16" height="16" viewBox="0 0 16 16" fill="none" xmlns="http://www.w3.org/2000/svg">
<g style="mix-blend-mode:luminosity">
<path d="M2.22698 10.6656H13.773C15.2463 10.6656 16 9.92553 16 8.466V4.02574C16 2.56621 15.2463 1.82617 13.773 1.82617H2.22698C0.7606 1.82617 0 2.56621 0 4.02574V8.466C0 9.92553 0.7606 10.6656 2.22698 10.6656ZM2.2818 9.34994C1.68565 9.34994 1.3636 9.04159 1.3636 8.42489V4.06686C1.3636 3.45015 1.68565 3.1418 2.2818 3.1418H13.7182C14.3143 3.1418 14.6364 3.45015 14.6364 4.06686V8.42489C14.6364 9.04159 14.3143 9.34994 13.7182 9.34994H2.2818ZM0.746895 14.1739H2.15161C2.39829 14.1739 2.56274 14.0163 2.56274 13.7696V12.3855C2.56274 12.132 2.40514 11.9744 2.15161 11.9744H0.746895C0.48651 11.9744 0.328908 12.132 0.328908 12.3855V13.7696C0.328908 14.0163 0.493362 14.1739 0.746895 14.1739ZM4.02912 14.1739H5.42698C5.67366 14.1739 5.84497 14.0163 5.84497 13.7696V12.3855C5.84497 12.132 5.68051 11.9744 5.42698 11.9744H4.02912C3.76874 11.9744 3.60428 12.132 3.60428 12.3855V13.7696C3.60428 14.0163 3.77559 14.1739 4.02912 14.1739ZM7.3045 14.1739H8.70236C8.94904 14.1739 9.12034 14.0163 9.12034 13.7696V12.3855C9.12034 12.132 8.95589 11.9744 8.70236 11.9744H7.3045C7.04411 11.9744 6.87966 12.132 6.87966 12.3855V13.7696C6.87966 14.0163 7.05096 14.1739 7.3045 14.1739ZM10.5799 14.1739H11.9846C12.2313 14.1739 12.3957 14.0163 12.3957 13.7696V12.3855C12.3957 12.132 12.2381 11.9744 11.9846 11.9744H10.5799C10.3263 11.9744 10.1619 12.132 10.1619 12.3855V13.7696C10.1619 14.0163 10.3332 14.1739 10.5799 14.1739ZM13.8621 14.1739H15.2668C15.5135 14.1739 15.6779 14.0163 15.6779 13.7696V12.3855C15.6779 12.132 15.5135 11.9744 15.2668 11.9744H13.8621C13.6017 11.9744 13.4373 12.132 13.4373 12.3855V13.7696C13.4373 14.0163 13.6086 14.1739 13.8621 14.1739Z" fill="black"/>
</g>
</svg>
