<svg width="16" height="16" viewBox="0 0 16 16" fill="none" xmlns="http://www.w3.org/2000/svg">
<path d="M8.00001 11.4722C9.91764 11.4722 11.4722 9.91764 11.4722 8.00001C11.4722 6.08238 9.91764 4.52783 8.00001 4.52783C6.08238 4.52783 4.52783 6.08238 4.52783 8.00001C4.52783 9.91764 6.08238 11.4722 8.00001 11.4722Z" stroke="black" stroke-width="0.892846" stroke-linecap="round" stroke-linejoin="round"/>
<path d="M13.5828 7.49272L14.2367 6.5119C14.2793 6.44871 14.3075 6.37691 14.3192 6.30161C14.331 6.22631 14.326 6.14934 14.3047 6.07618C14.1813 5.66997 14.0187 5.27672 13.8192 4.902C13.7827 4.83529 13.7318 4.77747 13.6704 4.73268C13.6089 4.68788 13.5383 4.65721 13.4636 4.64285L12.3066 4.41142L11.5888 3.69368L11.3574 2.5366C11.343 2.4619 11.3124 2.39129 11.2676 2.32982C11.2228 2.26835 11.1649 2.21752 11.0982 2.18097C10.7235 1.9815 10.3302 1.81894 9.924 1.6956C9.85084 1.67424 9.77388 1.66926 9.69857 1.681C9.62327 1.69274 9.55148 1.72091 9.48829 1.76352L8.50753 2.41736H7.49247L6.51171 1.76352C6.44852 1.72092 6.37673 1.69274 6.30143 1.681C6.22612 1.66926 6.14916 1.67424 6.076 1.6956C5.66979 1.81894 5.27653 1.9815 4.90179 2.18097C4.83507 2.21752 4.77725 2.26834 4.73245 2.32982C4.68764 2.3913 4.65697 2.46191 4.64262 2.53661L4.41125 3.69362L3.69344 4.41142L2.53643 4.64279C2.46173 4.65715 2.39112 4.68782 2.32965 4.73262C2.26817 4.77741 2.21734 4.83523 2.1808 4.90194C1.98129 5.27669 1.81871 5.66996 1.69535 6.07619C1.674 6.14935 1.66902 6.22631 1.68076 6.30161C1.6925 6.37691 1.72068 6.4487 1.76329 6.51189L2.41713 7.49265V8.50771L1.76328 9.48848C1.72068 9.55167 1.6925 9.62346 1.68076 9.69876C1.66902 9.77406 1.67401 9.85102 1.69536 9.92418C1.81868 10.3304 1.98124 10.7237 2.18073 11.0984C2.21728 11.1651 2.2681 11.223 2.32958 11.2678C2.39105 11.3125 2.46166 11.3432 2.53635 11.3576L3.69344 11.589L4.41118 12.3067L4.64256 13.4638C4.65691 13.5385 4.68758 13.6091 4.73238 13.6706C4.77717 13.7321 4.83499 13.7829 4.9017 13.8195C5.27643 14.019 5.66968 14.1815 6.0759 14.3049C6.14905 14.3262 6.22601 14.3312 6.30131 14.3194C6.3766 14.3077 6.44839 14.2795 6.51158 14.2369L7.49241 13.5831H8.50747L9.48829 14.237C9.55147 14.2796 9.62327 14.3077 9.69857 14.3195C9.77387 14.3312 9.85084 14.3262 9.924 14.3049C10.3302 14.1816 10.7234 14.019 11.0982 13.8195C11.1649 13.783 11.2227 13.7322 11.2675 13.6707C11.3123 13.6092 11.343 13.5386 11.3573 13.4639L11.5888 12.3068L12.3065 11.589L13.4636 11.3576C13.5383 11.3433 13.6089 11.3126 13.6704 11.2678C13.7318 11.223 13.7827 11.1652 13.8192 11.0985C14.0187 10.7238 14.1813 10.3305 14.3046 9.92431C14.326 9.85115 14.331 9.77419 14.3192 9.69888C14.3075 9.62358 14.2793 9.55178 14.2367 9.48859L13.5828 8.50778V7.49272Z" stroke="black" stroke-width="0.892846" stroke-linecap="round" stroke-linejoin="round"/>
</svg>
