<svg width="16" height="16" viewBox="0 0 16 16" fill="none" xmlns="http://www.w3.org/2000/svg">
<g style="mix-blend-mode:luminosity">
<path d="M2.40234 7.39453H5.69141C6.83203 7.39453 7.39453 6.83984 7.39453 5.66797V2.42578C7.39453 1.25391 6.83203 0.699219 5.69141 0.699219H2.40234C1.25391 0.699219 0.699219 1.25391 0.699219 2.42578V5.66797C0.699219 6.83984 1.25391 7.39453 2.40234 7.39453ZM10.3086 7.39453H13.6055C14.7461 7.39453 15.3008 6.83984 15.3008 5.66797V2.42578C15.3008 1.25391 14.7461 0.699219 13.6055 0.699219H10.3086C9.16797 0.699219 8.60547 1.25391 8.60547 2.42578V5.66797C8.60547 6.83984 9.16797 7.39453 10.3086 7.39453ZM2.40234 6.08984C2.12891 6.08984 2.00391 5.94922 2.00391 5.66797V2.41797C2.00391 2.13672 2.12891 1.99609 2.40234 1.99609H5.68359C5.95703 1.99609 6.08984 2.13672 6.08984 2.41797V5.66797C6.08984 5.94922 5.95703 6.08984 5.68359 6.08984H2.40234ZM10.3164 6.08984C10.043 6.08984 9.91016 5.94922 9.91016 5.66797V2.41797C9.91016 2.13672 10.043 1.99609 10.3164 1.99609H13.5977C13.8711 1.99609 14.0039 2.13672 14.0039 2.41797V5.66797C14.0039 5.94922 13.8711 6.08984 13.5977 6.08984H10.3164ZM2.40234 15.3008H5.69141C6.83203 15.3008 7.39453 14.7461 7.39453 13.5742V10.332C7.39453 9.16016 6.83203 8.60547 5.69141 8.60547H2.40234C1.25391 8.60547 0.699219 9.16016 0.699219 10.332V13.5742C0.699219 14.7461 1.25391 15.3008 2.40234 15.3008ZM10.3086 15.3008H13.6055C14.7461 15.3008 15.3008 14.7461 15.3008 13.5742V10.332C15.3008 9.16016 14.7461 8.60547 13.6055 8.60547H10.3086C9.16797 8.60547 8.60547 9.16016 8.60547 10.332V13.5742C8.60547 14.7461 9.16797 15.3008 10.3086 15.3008ZM2.40234 13.9961C2.12891 13.9961 2.00391 13.8633 2.00391 13.582V10.332C2.00391 10.043 2.12891 9.91016 2.40234 9.91016H5.68359C5.95703 9.91016 6.08984 10.043 6.08984 10.332V13.582C6.08984 13.8633 5.95703 13.9961 5.68359 13.9961H2.40234ZM10.3164 13.9961C10.043 13.9961 9.91016 13.8633 9.91016 13.582V10.332C9.91016 10.043 10.043 9.91016 10.3164 9.91016H13.5977C13.8711 9.91016 14.0039 10.043 14.0039 10.332V13.582C14.0039 13.8633 13.8711 13.9961 13.5977 13.9961H10.3164Z" fill="black"/>
</g>
</svg>
