<svg width="16" height="16" viewBox="0 0 16 16" fill="none" xmlns="http://www.w3.org/2000/svg">
<path fill-rule="evenodd" clip-rule="evenodd" d="M13.875 1.9873H2.125C1.50625 1.9873 1 2.49355 1 3.1123V12.8857C1 13.5045 1.50625 14.0107 2.125 14.0107H13.875C14.4938 14.0107 15 13.5045 15 12.8857V3.1123C15 2.49355 14.4938 1.9873 13.875 1.9873ZM13.8751 12.8825L13.8735 12.8841H2.12819L2.12663 12.8825V9.5575L5.02663 6.59188L8.42194 10.8091C8.60944 11.0216 8.92506 11.0622 9.15944 10.9028L11.6673 9.2075L13.8751 10.2466V12.8825ZM12.0297 8.07004L13.875 8.83097L13.8734 3.11379L13.8719 3.11222H2.12656L2.125 3.11379V7.94816L4.64375 5.3716C4.75313 5.26066 4.90469 5.19816 5.06094 5.20285C5.21719 5.20754 5.36563 5.27629 5.46875 5.39347L8.93906 9.69347L11.3734 8.05129C11.5734 7.91535 11.8375 7.92316 12.0297 8.07004ZM10.9062 4.26538C10.0359 4.26538 9.32812 4.97319 9.32812 5.84351C9.32812 6.71382 10.0359 7.42163 10.9062 7.42163C11.7766 7.42163 12.4844 6.71382 12.4844 5.84351C12.4844 4.97319 11.7766 4.26538 10.9062 4.26538ZM10.4531 5.84351C10.4531 6.09351 10.6562 6.29663 10.9062 6.29663C11.1562 6.29663 11.3594 6.09351 11.3594 5.84351C11.3594 5.59351 11.1562 5.39038 10.9062 5.39038C10.6562 5.39038 10.4531 5.59351 10.4531 5.84351Z" fill="black"/>
</svg>
