<svg width="16" height="16" viewBox="0 0 16 16" fill="none" xmlns="http://www.w3.org/2000/svg">
<g style="mix-blend-mode:luminosity">
<path d="M1.09918 4.33849C1.71069 4.33849 2.19836 3.85083 2.19836 3.23931C2.19836 2.63554 1.71069 2.14014 1.09918 2.14014C0.495404 2.14014 0 2.63554 0 3.23931C0 3.85083 0.495404 4.33849 1.09918 4.33849ZM4.7373 3.98242H15.2492C15.6672 3.98242 16 3.65731 16 3.23931C16 2.82132 15.6749 2.49621 15.2492 2.49621H4.7373C4.32704 2.49621 3.99419 2.82132 3.99419 3.23931C3.99419 3.65731 4.3193 3.98242 4.7373 3.98242ZM1.09918 9.09901C1.71069 9.09901 2.19836 8.61135 2.19836 7.99984C2.19836 7.39606 1.71069 6.90066 1.09918 6.90066C0.495404 6.90066 0 7.39606 0 7.99984C0 8.61135 0.495404 9.09901 1.09918 9.09901ZM4.7373 8.74294H15.2492C15.6672 8.74294 16 8.41783 16 7.99984C16 7.58184 15.6749 7.25673 15.2492 7.25673H4.7373C4.32704 7.25673 3.99419 7.58184 3.99419 7.99984C3.99419 8.41783 4.3193 8.74294 4.7373 8.74294ZM1.09918 13.8595C1.71069 13.8595 2.19836 13.3719 2.19836 12.7604C2.19836 12.1566 1.71069 11.6612 1.09918 11.6612C0.495404 11.6612 0 12.1566 0 12.7604C0 13.3719 0.495404 13.8595 1.09918 13.8595ZM4.7373 13.5035H15.2492C15.6672 13.5035 16 13.1784 16 12.7604C16 12.3424 15.6749 12.0173 15.2492 12.0173H4.7373C4.32704 12.0173 3.99419 12.3424 3.99419 12.7604C3.99419 13.1784 4.3193 13.5035 4.7373 13.5035Z" fill="black"/>
</g>
</svg>
