<svg width="16" height="16" viewBox="0 0 16 16" fill="none" xmlns="http://www.w3.org/2000/svg">
<g clip-path="url(#clip0_154_70722)">
<path d="M15 8.56C14.69 8.56 14.44 8.31 14.44 8C14.44 7.07 14.26 6.17 13.9 5.32C13.55 4.51 13.05 3.76 12.42 3.14C11.8 2.51 11.05 2.01 10.24 1.66C9.39 1.31 8.49 1.12 7.56 1.12C7.25 1.12 7 0.87 7 0.56C7 0.25 7.25 0 7.56 0C8.64 0 9.69 0.21 10.67 0.63C11.62 1.03 12.48 1.61 13.21 2.34C13.94 3.07 14.52 3.93 14.92 4.88C15.35 5.87 15.56 6.92 15.56 8C15.56 8.31 15.31 8.56 15 8.56Z" fill="black"/>
</g>
<defs>
<clipPath id="clip0_154_70722">
<rect width="8.56" height="8.56" fill="white" transform="translate(7)"/>
</clipPath>
</defs>
</svg>
