<svg width="16" height="16" viewBox="0 0 16 16" fill="none" xmlns="http://www.w3.org/2000/svg">
<path d="M7.99999 11.7139C9.89871 11.7139 11.4434 10.1691 11.4434 8.27047V3.94353C11.4434 2.04481 9.89871 0.5 7.99999 0.5C6.10127 0.5 4.55646 2.04481 4.55646 3.94353V8.27047C4.55646 10.1692 6.10127 11.7139 7.99999 11.7139Z" fill="black"/>
<path d="M12.9534 9.70794C13.0004 9.45341 12.8322 9.20891 12.5776 9.16175C12.3228 9.1145 12.0785 9.28288 12.0314 9.5375C11.6899 11.3837 9.99443 12.7237 7.99999 12.7237C6.00546 12.7237 4.30999 11.3837 3.96846 9.5375C3.9214 9.28288 3.67671 9.11507 3.42228 9.16175C3.16765 9.20891 2.99946 9.45341 3.04662 9.70794C3.44299 11.8507 5.29156 13.4436 7.53124 13.6404V14.5626H4.32209C4.06324 14.5626 3.85334 14.7724 3.85334 15.0313C3.85334 15.2903 4.06324 15.5001 4.32209 15.5001H11.6778C11.9367 15.5001 12.1466 15.2903 12.1466 15.0313C12.1466 14.7724 11.9367 14.5626 11.6778 14.5626H8.46874V13.6404C10.7084 13.4436 12.557 11.8507 12.9534 9.70794Z" fill="black"/>
</svg>
