<svg width="16" height="16" viewBox="0 0 16 16" fill="none" xmlns="http://www.w3.org/2000/svg">
<path fill-rule="evenodd" clip-rule="evenodd" d="M8.21358 0.335193C8.08116 0.254805 7.91627 0.254805 7.78385 0.335193L1.81889 4.03379L1.79837 4.05585L1.79644 4.0579C1.78215 4.07315 1.74683 4.11079 1.72497 4.17728C1.70885 4.22631 1.70243 4.28341 1.69815 4.34494C1.68918 4.4741 1.6853 4.7124 1.68353 5.16977C1.68189 5.59602 1.68211 6.22006 1.68245 7.13697C1.68283 8.1993 1.68335 9.65499 1.68127 11.6515C1.68127 11.7954 1.75276 11.9408 1.88641 12.0206L1.92436 12.0433C3.49804 13.0152 4.6525 13.7313 5.50133 14.2578L5.50202 14.2582C6.26325 14.7304 6.77861 15.0501 7.1301 15.265C7.5001 15.4913 7.6992 15.6083 7.8145 15.6643C7.86944 15.691 7.92964 15.7164 7.99246 15.7231C8.06922 15.7313 8.12648 15.7081 8.14413 15.701L8.14726 15.6997L8.1665 15.6923L14.1155 12.0187C14.2442 11.9388 14.3174 11.7978 14.3174 11.6515C14.3174 9.72952 14.318 8.31281 14.3184 7.26751V7.26411C14.3187 6.30807 14.319 5.66309 14.3186 5.22654C14.3182 4.77033 14.3171 4.53925 14.3147 4.41838C14.3124 4.30644 14.31 4.26131 14.2901 4.2057L14.2897 4.20467L14.2889 4.20226C14.2822 4.18369 14.2666 4.14029 14.2239 4.09311C14.1924 4.05818 14.1503 4.02585 14.1024 3.99193C14.0023 3.92108 13.8121 3.79957 13.4437 3.57008C13.0936 3.3519 12.5765 3.03252 11.8116 2.56012C10.9585 2.03318 9.79711 1.31585 8.21528 0.336229L8.21358 0.335193ZM8.00001 7.5007L2.91226 4.35373L8.00001 1.20676L13.0878 4.35373L8.00001 7.5007ZM2.5198 11.4101V5.11483L7.58139 8.24532V14.5406L2.5198 11.4101ZM8.41862 14.5467V8.24668L13.4802 5.1162V11.4102C10.798 13.0694 9.44652 13.9085 8.76566 14.3313L8.73775 14.3486L8.41862 14.5467Z" fill="black"/>
</svg>
