<svg width="16" height="16" viewBox="0 0 16 16" fill="none" xmlns="http://www.w3.org/2000/svg">
<path d="M7.74207 14H7.22197C4.04358 13.7111 1.73202 10.8794 2.02097 7.701C2.25212 4.92714 4.4481 2.73116 7.22197 2.5C7.45313 2.5 7.68428 2.61558 7.79986 2.78894C7.91544 2.96231 7.91544 3.25126 7.74207 3.42462C6.58629 4.98492 6.93303 7.12312 8.49333 8.27889C9.7069 9.20352 11.3828 9.20352 12.5963 8.27889C12.7697 8.16332 13.0009 8.10553 13.232 8.22111C13.4054 8.33668 13.521 8.56784 13.521 8.79899C13.4054 10.3593 12.6541 11.7462 11.4406 12.7286C10.3426 13.5377 9.07122 14 7.74207 14ZM6.12398 3.82915C4.4481 4.40704 3.23453 5.90955 3.11896 7.75879C2.8878 10.3015 4.73705 12.5553 7.27976 12.7864C8.49333 12.902 9.7069 12.5553 10.6315 11.7462C11.2672 11.2261 11.7295 10.5327 12.0185 9.78141C10.5737 10.3015 8.95564 10.0704 7.68428 9.14573C6.06619 7.87437 5.43051 5.73618 6.12398 3.82915Z" fill="black"/>
</svg>
