<svg width="16" height="16" viewBox="0 0 16 16" fill="none" xmlns="http://www.w3.org/2000/svg">
<path fill-rule="evenodd" clip-rule="evenodd" d="M8 11.9375C8.72487 11.9375 9.3125 12.5251 9.3125 13.25C9.3125 13.9749 8.72487 14.5625 8 14.5625C7.27513 14.5625 6.6875 13.9749 6.6875 13.25C6.6875 12.5251 7.27513 11.9375 8 11.9375ZM8 6.6875C8.72487 6.6875 9.3125 7.27513 9.3125 8C9.3125 8.72487 8.72487 9.3125 8 9.3125C7.27513 9.3125 6.6875 8.72487 6.6875 8C6.6875 7.27513 7.27513 6.6875 8 6.6875ZM9.3125 2.75C9.3125 2.02513 8.72487 1.4375 8 1.4375C7.27513 1.4375 6.6875 2.02513 6.6875 2.75C6.6875 3.47487 7.27513 4.0625 8 4.0625C8.72487 4.0625 9.3125 3.47487 9.3125 2.75Z" fill="black"/>
</svg>
