<svg width="16" height="16" viewBox="0 0 16 16" fill="none" xmlns="http://www.w3.org/2000/svg">
<path fill-rule="evenodd" clip-rule="evenodd" d="M4.0625 8C4.0625 8.72487 3.47487 9.3125 2.75 9.3125C2.02513 9.3125 1.4375 8.72487 1.4375 8C1.4375 7.27513 2.02513 6.6875 2.75 6.6875C3.47487 6.6875 4.0625 7.27513 4.0625 8ZM9.3125 8C9.3125 8.72487 8.72487 9.3125 8 9.3125C7.27513 9.3125 6.6875 8.72487 6.6875 8C6.6875 7.27513 7.27513 6.6875 8 6.6875C8.72487 6.6875 9.3125 7.27513 9.3125 8ZM13.25 9.3125C13.9749 9.3125 14.5625 8.72487 14.5625 8C14.5625 7.27513 13.9749 6.6875 13.25 6.6875C12.5251 6.6875 11.9375 7.27513 11.9375 8C11.9375 8.72487 12.5251 9.3125 13.25 9.3125Z" fill="black"/>
</svg>
