<svg width="16" height="16" viewBox="0 0 16 16" fill="none" xmlns="http://www.w3.org/2000/svg">
<rect width="16" height="16" fill="white" fill-opacity="0.01"/>
<path fill-rule="evenodd" clip-rule="evenodd" d="M5.18818 4.43532C5.18818 3.20689 6.40963 2.18816 7.69364 2.18816C8.97766 2.18816 10.1991 3.20689 10.1991 4.43532C10.1991 5.57037 9.62339 6.10324 8.84925 6.78977L8.81725 6.81814C8.04985 7.49836 7.09956 8.34069 7.09956 10.0145C7.09956 10.3426 7.36554 10.6086 7.69364 10.6086C8.02174 10.6086 8.28773 10.3426 8.28773 10.0145C8.28773 8.89367 8.86052 8.36784 9.63759 7.67873L9.6591 7.65966C10.4311 6.97517 11.3872 6.1274 11.3872 4.43532C11.3872 2.39743 9.46931 1 7.69364 1C5.91796 1 4.00002 2.39743 4.00002 4.43532C4.00002 4.76343 4.266 5.0294 4.5941 5.0294C4.92219 5.0294 5.18818 4.76343 5.18818 4.43532ZM7.69364 14C8.19293 14 8.59768 13.5952 8.59768 13.096C8.59768 12.5966 8.19293 12.1919 7.69364 12.1919C7.19436 12.1919 6.78961 12.5966 6.78961 13.096C6.78961 13.5952 7.19436 14 7.69364 14Z" fill="black"/>
</svg>
