<svg width="16" height="16" viewBox="0 0 16 16" fill="none" xmlns="http://www.w3.org/2000/svg">
<path fill-rule="evenodd" clip-rule="evenodd" d="M7.40466 0.883863C7.57387 0.748207 7.78444 0.674598 8.00132 0.675298C8.21826 0.675998 8.42842 0.751007 8.59677 0.887827L7.40466 0.883863ZM7.4044 0.884072C6.78134 1.38323 5.42426 2.63079 4.6767 4.55582C4.41697 5.22467 4.23318 5.96956 4.17657 6.7857L2.31199 9.0232C2.219 9.13479 2.15283 9.26621 2.11858 9.40737C2.08433 9.54853 2.08291 9.69566 2.11442 9.83746L2.8871 13.3145C2.9221 13.472 2.99662 13.618 3.10365 13.7387C3.21068 13.8594 3.34668 13.9509 3.49884 14.0045C3.651 14.0581 3.8143 14.072 3.97335 14.0451C4.1324 14.0181 4.28197 13.9511 4.40794 13.8503L6.15841 12.4499H9.84185L11.5923 13.8503C11.7183 13.951 11.8678 14.0181 12.0269 14.0451C12.1859 14.072 12.3492 14.0581 12.5014 14.0045C12.6536 13.9509 12.7896 13.8594 12.8966 13.7387C13.0036 13.618 13.0781 13.472 13.1131 13.3145L13.8858 9.83744C13.9173 9.69564 13.9159 9.54851 13.8816 9.40735C13.8474 9.2662 13.7812 9.13477 13.6882 9.02318L11.7853 6.73964C11.724 5.94346 11.5437 5.21578 11.292 4.56107C10.5522 2.63731 9.21385 1.38917 8.59688 0.887918L7.4044 0.884072ZM12.1545 13.1475L10.5763 11.8849C11.2956 10.5251 11.6576 9.26894 11.7694 8.12645L12.9968 9.59935C13.0017 9.60522 13.0052 9.61214 13.007 9.61957C13.0088 9.627 13.0089 9.63474 13.0072 9.6422L12.2346 13.1193C12.2327 13.1276 12.2288 13.1352 12.2232 13.1416C12.2175 13.148 12.2104 13.1528 12.2024 13.1556C12.1944 13.1584 12.1858 13.1591 12.1774 13.1577C12.169 13.1563 12.1611 13.1528 12.1545 13.1475ZM10.8981 6.96322C10.8965 6.94843 10.8957 6.9336 10.8955 6.91876C10.8497 6.16385 10.683 5.48502 10.4519 4.8841C9.79186 3.16763 8.58694 2.03941 8.02928 1.58636L8.02916 1.58627C8.02047 1.5792 8.00962 1.57533 7.99842 1.57529C7.98722 1.57526 7.97634 1.57906 7.9676 1.58607L7.686 1.23507L7.96734 1.58628C7.40326 2.03815 6.18198 3.16579 5.51567 4.88162C5.27659 5.49726 5.10632 6.19499 5.06691 6.97291C5.06673 6.9793 5.06641 6.98569 5.06596 6.99207C5.00384 8.29141 5.30699 9.81364 6.26316 11.5499H9.73485C10.6775 9.80138 10.9689 8.26937 10.8981 6.96322ZM5.42171 11.8867C4.69448 10.5397 4.32352 9.29403 4.20315 8.15965L3.00339 9.59937C2.99849 9.60524 2.99501 9.61216 2.99321 9.61959C2.9914 9.62702 2.99133 9.63476 2.99299 9.64222L3.76567 13.1193C3.76751 13.1276 3.77143 13.1353 3.77707 13.1416C3.7827 13.148 3.78986 13.1528 3.79787 13.1556C3.80588 13.1584 3.81447 13.1592 3.82284 13.1577C3.83121 13.1563 3.83909 13.1528 3.84571 13.1475L5.42171 11.8867ZM6.5498 14C6.5498 13.7515 6.75128 13.55 6.9998 13.55H8.9998C9.24833 13.55 9.4498 13.7515 9.4498 14C9.4498 14.2486 9.24833 14.45 8.9998 14.45H6.9998C6.75128 14.45 6.5498 14.2486 6.5498 14ZM8.75 6C8.75 6.41421 8.41421 6.75 8 6.75C7.58579 6.75 7.25 6.41421 7.25 6C7.25 5.58579 7.58579 5.25 8 5.25C8.41421 5.25 8.75 5.58579 8.75 6Z" fill="black"/>
</svg>
