<svg width="16" height="16" viewBox="0 0 16 16" fill="none" xmlns="http://www.w3.org/2000/svg">
<g clip-path="url(#clip0_917_18162)">
<path d="M6.12748 1.73111C6.19748 1.30956 6.56303 1 6.99081 1H9.00759C9.43537 1 9.80092 1.30956 9.87092 1.73111L10.0366 2.72744C10.0856 3.01833 10.28 3.261 10.5383 3.40411C10.5958 3.43522 10.6526 3.46867 10.7094 3.50289C10.9621 3.65533 11.2694 3.70278 11.5455 3.59933L12.492 3.24467C12.686 3.17172 12.8996 3.16998 13.0947 3.23978C13.2898 3.30957 13.4539 3.44636 13.5576 3.62578L14.5656 5.37344C14.6691 5.55288 14.7056 5.76321 14.6685 5.96702C14.6315 6.17082 14.5234 6.35488 14.3634 6.48644L13.5833 7.12967C13.3554 7.31711 13.2426 7.60644 13.2488 7.90122C13.2499 7.96733 13.2499 8.03345 13.2488 8.09956C13.2426 8.39356 13.3554 8.68289 13.5833 8.87033L14.3641 9.51356C14.6939 9.78578 14.7795 10.2563 14.5664 10.6258L13.5568 12.3734C13.4532 12.5528 13.2894 12.6897 13.0944 12.7596C12.8995 12.8295 12.686 12.828 12.492 12.7553L11.5455 12.4007C11.2694 12.2972 10.9621 12.3447 10.7086 12.4971C10.6522 12.5314 10.5952 12.5646 10.5375 12.5967C10.28 12.739 10.0856 12.9817 10.0366 13.2726L9.87092 14.2689C9.80092 14.6912 9.43537 15 9.00759 15H6.99003C6.56226 15 6.19748 14.6904 6.1267 14.2689L5.96103 13.2726C5.91281 12.9817 5.71837 12.739 5.46014 12.5959C5.40247 12.5641 5.34542 12.5311 5.28903 12.4971C5.03625 12.3447 4.72903 12.2972 4.45214 12.4007L3.50559 12.7553C3.31171 12.8281 3.09832 12.8297 2.90335 12.7599C2.70839 12.6901 2.5445 12.5535 2.44081 12.3742L1.43203 10.6266C1.32854 10.4471 1.29207 10.2368 1.3291 10.033C1.36613 9.82918 1.47426 9.64512 1.63425 9.51356L2.41514 8.87033C2.64225 8.68367 2.75503 8.39356 2.74959 8.09956C2.74837 8.03345 2.74837 7.96733 2.74959 7.90122C2.75503 7.60567 2.64225 7.31711 2.41514 7.12967L1.63425 6.48644C1.47445 6.35492 1.36645 6.171 1.32942 5.96737C1.2924 5.76374 1.32875 5.55358 1.43203 5.37422L2.44081 3.62656C2.5444 3.44699 2.70838 3.31004 2.90352 3.24011C3.09866 3.17017 3.3123 3.17178 3.50637 3.24467L4.45214 3.59933C4.72903 3.70278 5.03625 3.65533 5.28903 3.50289C5.34503 3.46867 5.40259 3.436 5.46014 3.40333C5.71837 3.261 5.91281 3.01833 5.96103 2.72744L6.12748 1.73111Z" stroke="black" stroke-linecap="round" stroke-linejoin="round"/>
<path d="M10.5 8C10.5 8.66304 10.2366 9.29893 9.76777 9.76777C9.29893 10.2366 8.66304 10.5 8 10.5C7.33696 10.5 6.70107 10.2366 6.23223 9.76777C5.76339 9.29893 5.5 8.66304 5.5 8C5.5 7.33696 5.76339 6.70107 6.23223 6.23223C6.70107 5.76339 7.33696 5.5 8 5.5C8.66304 5.5 9.29893 5.76339 9.76777 6.23223C10.2366 6.70107 10.5 7.33696 10.5 8Z" stroke="black" stroke-linecap="round" stroke-linejoin="round"/>
</g>
<defs>
<clipPath id="clip0_917_18162">
<rect width="16" height="16" fill="white"/>
</clipPath>
</defs>
</svg>
