<svg width="16" height="16" viewBox="0 0 16 16" fill="none" xmlns="http://www.w3.org/2000/svg">
<path fill-rule="evenodd" clip-rule="evenodd" d="M11.9818 2.39158C12.1594 2.38826 12.3347 2.43231 12.4897 2.51921C12.6446 2.60611 12.7736 2.73272 12.8634 2.88601C12.9532 3.03931 13.0005 3.21375 13.0005 3.39141V12.6083C13.0005 12.786 12.9532 12.9604 12.8634 13.1137C12.7736 13.267 12.6446 13.3936 12.4897 13.4805C12.3347 13.5674 12.1594 13.6115 11.9818 13.6082C11.8042 13.6048 11.6306 13.5543 11.4791 13.4616L3.93793 8.85316C3.79175 8.76383 3.67098 8.63845 3.58718 8.48904C3.50338 8.33962 3.45937 8.17119 3.45937 7.99988C3.45937 7.82857 3.50338 7.66013 3.58718 7.51072C3.67098 7.36131 3.79175 7.23592 3.93793 7.1466L11.4791 2.53812C11.6306 2.44549 11.8042 2.39491 11.9818 2.39158ZM12.0005 3.39141L4.45938 7.99988L12.0005 12.6083V3.39141Z" fill="black"/>
<path fill-rule="evenodd" clip-rule="evenodd" d="M3.5 2C3.77614 2 4 2.22386 4 2.5V13.5C4 13.7761 3.77614 14 3.5 14C3.22386 14 3 13.7761 3 13.5V2.5C3 2.22386 3.22386 2 3.5 2Z" fill="black"/>
</svg>
