<svg width="16" height="16" viewBox="0 0 16 16" fill="none" xmlns="http://www.w3.org/2000/svg">
<path fill-rule="evenodd" clip-rule="evenodd" d="M3.51084 2.51928C3.66579 2.43238 3.84109 2.38833 4.01871 2.39165C4.19633 2.39498 4.36986 2.44556 4.52145 2.5382L12.0626 7.14667C12.2088 7.236 12.3295 7.36138 12.4133 7.51079C12.4971 7.66021 12.5411 7.82864 12.5411 7.99995C12.5411 8.17126 12.4971 8.33969 12.4133 8.48911C12.3295 8.63852 12.2088 8.76391 12.0626 8.85323L4.52145 13.4617C4.36986 13.5543 4.19633 13.6049 4.01871 13.6082C3.84109 13.6116 3.66579 13.5675 3.51084 13.4806C3.3559 13.3937 3.2269 13.2671 3.13711 13.1138C3.04733 12.9605 3 12.7861 3 12.6084V3.39148C3 3.21383 3.04733 3.03938 3.13711 2.88609C3.22689 2.73279 3.35589 2.60618 3.51084 2.51928ZM11.5411 7.99995L4 3.39148V12.6084L11.5411 7.99995Z" fill="black"/>
<path fill-rule="evenodd" clip-rule="evenodd" d="M12.5 2C12.7761 2 13 2.22386 13 2.5V13.5C13 13.7761 12.7761 14 12.5 14C12.2239 14 12 13.7761 12 13.5V2.5C12 2.22386 12.2239 2 12.5 2Z" fill="black"/>
</svg>
