<svg width="16" height="16" viewBox="0 0 16 16" fill="none" xmlns="http://www.w3.org/2000/svg">
<path d="M13.6801 4.81787C14.0979 5.23573 14.4294 5.73181 14.6555 6.27778C14.8817 6.82374 14.9981 7.4089 14.9981 7.99985C14.9981 8.5908 14.8817 9.17596 14.6555 9.72193C14.4294 10.2679 14.0979 10.764 13.6801 11.1818" stroke="black" stroke-linecap="round" stroke-linejoin="round"/>
<path d="M5 10.5H2C1.86739 10.5 1.74021 10.4473 1.64645 10.3536C1.55268 10.2598 1.5 10.1326 1.5 10V6C1.5 5.86739 1.55268 5.74021 1.64645 5.64645C1.74021 5.55268 1.86739 5.5 2 5.5H5L9.5 2V14L5 10.5Z" stroke="black" stroke-linecap="round" stroke-linejoin="round"/>
<path d="M5 5.5V10.5" stroke="black" stroke-linecap="round" stroke-linejoin="round"/>
<path d="M11.9124 6.58594C12.0981 6.77165 12.2454 6.99213 12.3459 7.23478C12.4464 7.47744 12.4981 7.73751 12.4981 8.00015C12.4981 8.26279 12.4464 8.52287 12.3459 8.76552C12.2454 9.00817 12.0981 9.22865 11.9124 9.41437" stroke="black" stroke-linecap="round" stroke-linejoin="round"/>
</svg>
