<svg width="16" height="16" viewBox="0 0 16 16" fill="none" xmlns="http://www.w3.org/2000/svg">
<path fill-rule="evenodd" clip-rule="evenodd" d="M8.4 0.5C8.75899 0.5 9.05 0.791015 9.05 1.15V2.1625C9.05 2.52149 8.75899 2.8125 8.4 2.8125C8.04102 2.8125 7.75 2.52149 7.75 2.1625V1.15C7.75 0.791015 8.04102 0.5 8.4 0.5ZM3.16741 2.66741C3.42125 2.41357 3.83281 2.41357 4.08665 2.66741L4.80258 3.38334C5.05642 3.63718 5.05642 4.04874 4.80258 4.30258C4.54874 4.55642 4.13718 4.55642 3.88334 4.30258L3.16741 3.58665C2.91357 3.33281 2.91357 2.92125 3.16741 2.66741ZM13.6326 2.66741C13.8864 2.92125 13.8864 3.3328 13.6326 3.58665L12.9167 4.30258C12.6628 4.55642 12.2513 4.55642 11.9974 4.30258C11.7436 4.04875 11.7436 3.63719 11.9974 3.38335L12.7133 2.66741C12.9672 2.41357 13.3787 2.41357 13.6326 2.66741ZM3.89286 7.9C3.89286 5.41078 5.91078 3.39286 8.4 3.39286C10.8892 3.39286 12.9071 5.41078 12.9071 7.9C12.9071 10.3892 10.8892 12.4071 8.4 12.4071C5.91078 12.4071 3.89286 10.3892 3.89286 7.9ZM8.4 4.69286C6.62875 4.69286 5.19286 6.12875 5.19286 7.9C5.19286 9.67125 6.62875 11.1071 8.4 11.1071C10.1713 11.1071 11.6071 9.67125 11.6071 7.9C11.6071 6.12875 10.1713 4.69286 8.4 4.69286ZM1 7.9C1 7.54102 1.29101 7.25 1.65 7.25H2.6625C3.02149 7.25 3.3125 7.54102 3.3125 7.9C3.3125 8.25899 3.02149 8.55 2.6625 8.55H1.65C1.29101 8.55 1 8.25899 1 7.9ZM13.4875 7.9C13.4875 7.54102 13.7785 7.25 14.1375 7.25H15.15C15.509 7.25 15.8 7.54102 15.8 7.9C15.8 8.25899 15.509 8.55 15.15 8.55H14.1375C13.7785 8.55 13.4875 8.25899 13.4875 7.9ZM4.80258 11.4974C5.05642 11.7513 5.05642 12.1628 4.80258 12.4167L4.08665 13.1326C3.8328 13.3864 3.42125 13.3864 3.16741 13.1326C2.91357 12.8787 2.91357 12.4672 3.16741 12.2133L3.88335 11.4974C4.13719 11.2436 4.54875 11.2436 4.80258 11.4974ZM11.9974 11.4974C12.2513 11.2436 12.6628 11.2436 12.9167 11.4974L13.6326 12.2133C13.8864 12.4672 13.8864 12.8787 13.6326 13.1326C13.3787 13.3864 12.9672 13.3864 12.7133 13.1326L11.9974 12.4167C11.7436 12.1628 11.7436 11.7513 11.9974 11.4974ZM8.4 12.9875C8.75899 12.9875 9.05 13.2785 9.05 13.6375V14.65C9.05 15.009 8.75899 15.3 8.4 15.3C8.04102 15.3 7.75 15.009 7.75 14.65V13.6375C7.75 13.2785 8.04102 12.9875 8.4 12.9875Z" fill="black"/>
</svg>
