<svg width="16" height="16" viewBox="0 0 16 16" fill="none" xmlns="http://www.w3.org/2000/svg">
<path fill-rule="evenodd" clip-rule="evenodd" d="M7.0989 14.5999C7.55923 14.5991 8.00501 14.3701 8.43227 13.9428L14.1063 8.25713C14.3305 8.03292 14.4587 7.84797 14.5273 7.63352C14.5945 7.42303 14.6011 7.19251 14.6011 6.88874V4.67734C14.6011 4.36124 14.564 4.14118 14.4622 3.94098C14.3624 3.7444 14.204 3.57542 13.9841 3.35544L12.6456 2.01696C12.4287 1.80007 12.2612 1.64178 12.0656 1.54118C11.8661 1.43864 11.646 1.3999 11.3295 1.3999H9.11227C8.80855 1.3999 8.57936 1.40648 8.37019 1.47382C8.1571 1.54243 7.97364 1.67075 7.74964 1.89475L2.05818 7.57457C1.63096 8.00178 1.40051 8.44896 1.39893 8.90994C1.39736 9.37116 1.62505 9.8231 2.06424 10.2593L5.74798 13.9373C6.18691 14.3732 6.63858 14.6007 7.0989 14.5999ZM1.53883 8.59415C1.61828 8.27519 1.81599 7.95817 2.12889 7.64528L7.82035 1.96546C8.25681 1.529 8.50123 1.4999 9.11227 1.4999H11.3295C11.9464 1.4999 12.1384 1.65121 12.5749 2.08767L13.9133 3.42615C14.3556 3.86843 14.5011 4.06047 14.5011 4.67734V6.88874C14.5011 7.12027 14.4969 7.3 14.468 7.45769C14.4969 7.30002 14.5011 7.12032 14.5011 6.88884V4.67744C14.5011 4.06057 14.3556 3.86853 13.9133 3.42625L12.5748 2.08777C12.1384 1.65131 11.9463 1.5 11.3295 1.5H9.11225C8.5012 1.5 8.25678 1.5291 7.82032 1.96556L2.12887 7.64537C1.816 7.95824 1.61829 8.27522 1.53883 8.59415ZM7.09218 13.3837C6.91149 13.3837 6.71881 13.2953 6.51814 13.0919L2.9037 9.4833C2.70343 9.283 2.61589 9.08876 2.61589 8.90665C2.61589 8.72453 2.70351 8.53313 2.89794 8.33867L8.54866 2.69959C8.65218 2.59607 8.75037 2.53684 8.91441 2.53684H11.3644C11.511 2.53684 11.6094 2.59042 11.7187 2.69972L13.3074 4.28262C13.4146 4.38989 13.4642 4.48779 13.4642 4.6366V7.09243C13.4642 7.25232 13.4093 7.35033 13.3072 7.45236L7.66234 13.0973C7.46443 13.2952 7.27305 13.3837 7.09218 13.3837ZM2.53609 8.74198C2.46965 9.01226 2.56672 9.28774 2.83305 9.55407L6.44695 13.1621C6.87177 13.5928 7.31405 13.587 7.73306 13.168L13.378 7.52307C13.4507 7.45032 13.5053 7.37531 13.5359 7.28239C13.5053 7.37535 13.4507 7.4504 13.3779 7.52317L7.73303 13.1681C7.31403 13.5871 6.87175 13.5929 6.44692 13.1622L2.83303 9.55416C2.56667 9.28781 2.4696 9.01229 2.53609 8.74198ZM10.6486 6.25549C11.1587 6.25549 11.5459 5.85477 11.5459 5.35822C11.5459 4.85537 11.1582 4.46095 10.6486 4.46095C10.1327 4.46095 9.75135 4.85586 9.75135 5.35822C9.75135 5.85428 10.1322 6.25549 10.6486 6.25549ZM11.4312 5.5146C11.4409 5.46407 11.4459 5.41178 11.4459 5.35822C11.4459 4.91012 11.1025 4.56095 10.6486 4.56095C10.2634 4.56095 9.96396 4.80611 9.87703 5.14921C9.964 4.80616 10.2634 4.56105 10.6486 4.56105C11.1025 4.56105 11.4459 4.91022 11.4459 5.35832C11.4459 5.41185 11.4408 5.4641 11.4312 5.5146Z" fill="black"/>
</svg>
