<svg width="16" height="16" viewBox="0 0 16 16" fill="none" xmlns="http://www.w3.org/2000/svg">
<path d="M10.8645 14.154H5.1361C4.14729 14.154 3.34283 13.3495 3.34283 12.3608V3.91504H3.99157V12.3608C3.99157 12.9919 4.50498 13.5053 5.1361 13.5053H10.8645C11.4956 13.5053 12.009 12.9919 12.009 12.3608V3.91504H12.6577V12.3608C12.6577 13.3495 11.8533 14.154 10.8645 14.154Z" fill="black" stroke="black" stroke-width="0.292685"/>
<path d="M13.8386 4.23907H2.1614C1.98224 4.23907 1.83704 4.09386 1.83704 3.9147C1.83704 3.73554 1.98224 3.59033 2.1614 3.59033H13.8386C14.0178 3.59033 14.163 3.73554 14.163 3.9147C14.163 4.09386 14.0178 4.23907 13.8386 4.23907Z" fill="black" stroke="black" stroke-width="0.292685"/>
<path d="M10.206 3.91479H9.55726V2.90494C9.55726 2.67884 9.37328 2.49492 9.14724 2.49492H6.85209C6.62605 2.49492 6.44207 2.67884 6.44207 2.90494V3.91479H5.79333V2.90494C5.79333 2.32115 6.26823 1.84619 6.85209 1.84619H9.14724C9.7311 1.84619 10.206 2.32115 10.206 2.90494V3.91479Z" fill="black" stroke="black" stroke-width="0.292685"/>
<path d="M6.28012 11.6667C6.10095 11.6667 5.95575 11.5215 5.95575 11.3423V6.58169C5.95575 6.40253 6.10095 6.25732 6.28012 6.25732C6.45928 6.25732 6.60448 6.40253 6.60448 6.58169V11.3423C6.60448 11.5215 6.45928 11.6667 6.28012 11.6667Z" fill="black" stroke="black" stroke-width="0.292685"/>
<path d="M9.71908 11.6667C9.53992 11.6667 9.39471 11.5215 9.39471 11.3423V6.58169C9.39471 6.40253 9.53992 6.25732 9.71908 6.25732C9.89824 6.25732 10.0434 6.40253 10.0434 6.58169V11.3423C10.0434 11.5215 9.89824 11.6667 9.71908 11.6667Z" fill="black" stroke="black" stroke-width="0.292685"/>
</svg>
