<svg width="16" height="16" viewBox="0 0 16 16" fill="none" xmlns="http://www.w3.org/2000/svg">
<g style="mix-blend-mode:luminosity">
<path d="M11.45 6.28379C11.45 6.15451 11.403 6.04873 11.3168 5.95862L8.33937 2.91063C8.22968 2.80485 8.11606 2.75 7.97502 2.75C7.8379 2.75 7.71645 2.80093 7.61459 2.91063L4.6332 5.95862C4.54701 6.04873 4.5 6.15451 4.5 6.28379C4.5 6.54628 4.70372 6.75 4.96229 6.75C5.08766 6.75 5.20911 6.69515 5.29922 6.60896L7.97894 3.86263L10.6508 6.60896C10.7449 6.69907 10.8585 6.75 10.9878 6.75C11.2463 6.75 11.45 6.54628 11.45 6.28379Z" fill="black"/>
</g>
<g style="mix-blend-mode:luminosity">
<path d="M4.54995 9.71621C4.54995 9.84549 4.59696 9.95127 4.68315 10.0414L7.66063 13.0894C7.77032 13.1952 7.88394 13.25 8.02498 13.25C8.1621 13.25 8.28355 13.1991 8.38541 13.0894L11.3668 10.0414C11.453 9.95127 11.5 9.84549 11.5 9.71621C11.5 9.45372 11.2963 9.25 11.0377 9.25C10.9123 9.25 10.7909 9.30485 10.7008 9.39104L8.02106 12.1374L5.34917 9.39104C5.25514 9.30093 5.14153 9.25 5.01224 9.25C4.75367 9.25 4.54995 9.45372 4.54995 9.71621Z" fill="black"/>
</g>
</svg>
